<?xml version="1.0" encoding="UTF-8"?>
<!-- Generated by @neplex/vectorizer (Using visioncortex VTracer) -->
<svg version="1.1" xmlns="http://www.w3.org/2000/svg" width="1254" height="1254" viewBox="0 0 1254 1254">
<path d="M0 0 C0.76 0.35 1.51 0.69 2.29 1.05 C17.7 8.24 32.88 16 46.88 25.69 C47.46 26.09 48.05 26.5 48.65 26.91 C56.3 32.22 63.68 37.78 70.88 43.69 C71.71 44.35 72.55 45.01 73.41 45.69 C78.9 50.08 84.15 54.67 89.31 59.44 C89.96 60.02 90.61 60.61 91.27 61.22 C94.43 64.15 97.23 67.03 99.73 70.55 C106 79.19 106 79.19 111.04 80.06 C116.62 80.12 122.08 79.06 127.57 78.15 C167.12 72.62 209.02 79.22 246.88 90.69 C247.94 90.99 249.01 91.3 250.1 91.62 C257.59 93.89 261.69 95.97 265.76 102.9 C266.37 104.14 266.97 105.38 267.56 106.62 C267.73 106.97 267.73 106.97 268.58 108.73 C269.31 110.25 270.03 111.78 270.75 113.3 C271.88 115.7 273.05 118.09 274.23 120.47 C289.27 151.63 301.63 188.97 302.04 223.77 C302.31 240.37 302.31 240.37 305.17 244.59 C308.54 247.8 312.54 249.68 316.73 251.6 C320.48 253.5 323.69 256.06 327 258.62 C327.33 258.88 327.33 258.88 329.02 260.16 C347.59 274.28 365.52 290.27 379.88 308.69 C380.37 309.31 380.86 309.94 381.37 310.59 C389 320.32 396.3 330.2 402.88 340.69 C403.52 341.71 404.16 342.73 404.82 343.79 C410.06 352.65 409.32 358.94 406.84 368.67 C406.69 369.23 406.69 369.23 405.94 372.06 C405.63 373.24 405.31 374.42 404.99 375.64 C394.38 414.76 377.08 457.16 350.29 488.12 C348.04 492.21 349.23 495.37 350.44 499.71 C350.88 501.21 351.33 502.7 351.79 504.19 C364.23 544.46 366.44 585.74 361.26 627.45 C360.92 630.29 360.66 633.12 360.43 635.96 C359.63 644.09 357.7 649.41 351.24 654.74 C349.47 656.09 347.68 657.39 345.88 658.69 C344.52 659.72 343.17 660.75 341.82 661.79 C326.49 673.35 310.12 683.66 292.73 691.82 C290.91 692.67 289.1 693.56 287.29 694.45 C270.6 702.58 253.29 708.42 235.39 713.24 C234.91 713.37 234.91 713.37 232.52 714.03 C229.87 714.69 229.87 714.69 227.53 715 C224.53 715.44 222.41 715.98 220.55 718.46 C219.32 720.87 218.33 723.29 217.38 725.81 C216.61 727.65 215.85 729.49 215.08 731.32 C214.9 731.78 214.9 731.78 213.96 734.09 C203.92 758.25 188.78 780.84 171.88 800.69 C171 801.75 170.12 802.81 169.25 803.87 C141.27 837.56 141.27 837.56 128.88 841.69 C82.84 843.92 29.47 831.73 -9.9 807.36 C-13.12 805.69 -13.12 805.69 -14.99 805.92 C-17.62 806.87 -20.05 808.05 -22.54 809.31 C-37.75 816.9 -52.92 823.42 -69.12 828.69 C-70 828.98 -70.87 829.27 -71.77 829.56 C-97.44 837.97 -125.21 841.59 -152.19 842 C-152.92 842.02 -153.65 842.04 -154.41 842.05 C-161.39 842.04 -164.86 839.13 -169.81 834.56 C-170.68 833.77 -171.55 832.97 -172.44 832.16 C-173.32 831.34 -174.21 830.53 -175.12 829.69 C-176.85 828.14 -178.58 826.6 -180.31 825.06 C-187.06 818.98 -193.24 812.6 -199.12 805.69 C-199.86 804.84 -200.6 803.99 -201.37 803.11 C-212.65 789.92 -222.11 775.56 -230.95 760.65 C-231.95 758.98 -232.98 757.32 -234.02 755.66 C-239.07 747.43 -242.95 738.66 -246.89 729.86 C-247.09 729.42 -247.09 729.42 -248.11 727.2 C-249.12 724.69 -249.12 724.69 -249.6 722.38 C-250.12 719.97 -250.55 718.6 -252.12 716.69 C-255.97 714.91 -259.9 713.96 -264.03 713.07 C-266.78 712.47 -269.51 711.8 -272.24 711.13 C-273.61 710.79 -274.98 710.46 -276.35 710.13 C-314.08 701 -348.7 680.19 -379.12 656.69 C-379.71 656.24 -380.3 655.78 -380.9 655.32 C-390.51 647.76 -391.35 640.11 -392.75 628.44 C-395.91 600.76 -396.18 571.11 -391.12 543.69 C-391.02 543.13 -391.02 543.13 -390.51 540.3 C-387.96 526.75 -384.83 513.53 -380.22 500.52 C-377.47 492.58 -377.47 492.58 -379.12 488.69 C-380.99 486.02 -380.99 486.02 -383.44 483.06 C-409.56 450.43 -439.05 396.67 -438.35 353.69 C-435.26 326.57 -393.89 290.51 -374.12 273.69 C-373.29 272.96 -372.45 272.23 -371.58 271.48 C-360.15 261.72 -347.97 252.67 -335 245.05 C-333.12 243.69 -333.12 243.69 -332.12 240.69 C-331.95 238.93 -331.83 237.17 -331.73 235.4 C-329.23 194.76 -320.89 126.81 -289.86 96.48 C-286.62 94.36 -283.35 93.05 -279.69 91.88 C-278.92 91.63 -278.15 91.38 -277.36 91.12 C-237.57 78.71 -196.82 75.05 -155.38 78.12 C-154.16 78.2 -152.95 78.29 -151.7 78.37 C-149.31 78.58 -146.93 78.87 -144.56 79.23 C-136.34 80.35 -136.34 80.35 -132.93 78.49 C-130.98 76.7 -129.41 74.85 -127.81 72.75 C-126.64 71.35 -125.46 69.96 -124.29 68.57 C-124.01 68.23 -124.01 68.23 -122.63 66.52 C-117.49 60.26 -111.27 54.94 -105.12 49.69 C-104.21 48.89 -103.3 48.09 -102.36 47.26 C-88.63 35.29 -73.76 25.1 -58.09 15.85 C-56.38 14.84 -54.69 13.8 -53 12.77 C-44.08 7.36 -34.65 2.92 -25.12 -1.31 C-24.79 -1.47 -24.79 -1.47 -23.08 -2.28 C-14.89 -5.85 -7.77 -3.66 0 0 Z M-87.12 70.69 C-88.05 71.49 -88.98 72.3 -89.93 73.12 C-94.76 77.37 -99.08 81.69 -103.12 86.69 C-99.54 89.01 -96.18 90.45 -92.09 91.68 C-90.91 92.04 -89.72 92.41 -88.49 92.79 C-87.86 92.99 -87.23 93.18 -86.58 93.39 C-60.81 101.46 -37.59 113.71 -15.12 128.69 C-11.93 128.32 -9.59 126.92 -6.89 125.25 C-6.08 124.75 -5.26 124.25 -4.43 123.74 C-3.56 123.21 -2.7 122.67 -1.81 122.12 C20.02 108.89 42.54 98.42 67.13 91.24 C68.12 90.94 69.11 90.65 70.12 90.34 C70.56 90.22 70.56 90.22 72.77 89.59 C74.88 88.69 74.88 88.69 76.88 85.69 C51.52 59.87 20.63 38.14 -13.12 24.69 C-36.74 24.69 -70.21 55.76 -87.12 70.69 Z M-242.63 110.97 C-244.97 111.45 -247.32 111.91 -249.67 112.34 C-269.64 116.12 -269.64 116.12 -274.11 121.82 C-276.04 125.08 -277.2 128.53 -278.3 132.15 C-279.23 135 -280.36 137.7 -281.54 140.45 C-292.05 165.01 -302.61 194.58 -302.19 221.69 C-302.18 222.45 -302.17 223.21 -302.16 224 C-302.15 224.56 -302.14 225.11 -302.12 225.69 C-300.12 226.69 -300.12 226.69 -298.45 226.13 C-297.77 225.81 -297.09 225.5 -296.39 225.17 C-295.6 224.81 -294.82 224.45 -294.01 224.08 C-293.14 223.68 -292.27 223.29 -291.38 222.88 C-263.03 210.33 -233.71 203.17 -203.12 198.69 C-201.45 194.24 -199.8 189.79 -198.18 185.32 C-188.7 159.32 -176.9 134.19 -159.72 112.3 C-158.12 109.69 -158.12 109.69 -158.37 107.33 C-158.62 106.79 -158.87 106.25 -159.12 105.69 C-187.45 103.85 -214.77 105.18 -242.63 110.97 Z M132.88 105.69 C132.2 107.42 132.2 107.42 131.88 109.69 C132.99 111.74 132.99 111.74 134.75 114 C139.63 120.61 143.78 127.57 147.88 134.69 C148.21 135.27 148.55 135.85 148.89 136.46 C158.39 153.11 165.67 170.84 171.28 189.15 C171.58 190.1 171.87 191.06 172.18 192.05 C172.31 192.48 172.31 192.48 172.96 194.62 C173.88 196.69 173.88 196.69 176.88 198.69 C179.07 199.17 179.07 199.17 181.65 199.51 C182.63 199.65 183.6 199.79 184.6 199.93 C185.66 200.08 186.72 200.22 187.81 200.38 C215.16 204.51 242.43 211.8 267.08 224.57 C270.13 225.79 270.88 225.62 273.88 224.69 C273.38 215.61 272.19 206.89 270.31 198 C270.05 196.75 269.79 195.5 269.52 194.21 C265.21 174.39 258.91 155.3 250.88 136.69 C250.7 136.28 250.7 136.28 249.84 134.23 C248.84 131.85 247.8 129.49 246.75 127.12 C246.6 126.77 246.6 126.77 245.84 124.98 C244.4 121.84 243.16 119.89 240.32 117.91 C235.58 116.23 230.81 114.94 225.94 113.75 C224.88 113.49 223.82 113.23 222.72 112.96 C193.09 105.87 163.26 103.27 132.88 105.69 Z M-132.57 119.11 C-149.64 142.8 -164.13 167.8 -173.12 195.69 C-171.23 197.59 -167.9 197.11 -165.36 197.3 C-163.93 197.41 -162.5 197.53 -161.06 197.64 C-160.69 197.67 -160.69 197.67 -158.78 197.82 C-139.8 199.31 -121.43 201.83 -103.11 207.2 C-96.78 209.01 -96.78 209.01 -93.12 207.69 C-91.12 205.64 -91.12 205.64 -89 202.94 C-88.21 201.94 -87.41 200.94 -86.6 199.91 C-84.98 197.82 -83.39 195.71 -81.81 193.59 C-69.26 176.89 -54.25 161.01 -38.12 147.69 C-39.36 143.97 -40.3 143.74 -43.66 141.9 C-44.62 141.38 -45.59 140.85 -46.58 140.31 C-47.62 139.75 -48.67 139.2 -49.75 138.62 C-50.83 138.05 -51.91 137.47 -53.03 136.88 C-119.47 101.93 -119.47 101.93 -132.57 119.11 Z M17.88 141.12 C17.52 141.33 17.52 141.33 15.7 142.34 C13.75 143.5 13.75 143.5 10.88 145.69 C10.88 149.69 10.88 149.69 13.4 152.39 C14.53 153.39 15.67 154.39 16.81 155.38 C18.01 156.45 19.21 157.52 20.41 158.59 C21 159.12 21.59 159.64 22.2 160.18 C36.51 173.06 48.93 188.59 59.8 204.43 C62.68 208.59 62.68 208.59 64.88 209.69 C67.72 209.03 70.5 208.3 73.31 207.5 C96.66 201.14 119.78 198.48 143.88 196.69 C145.2 193.05 144.55 191.04 143.14 187.5 C142.73 186.48 142.33 185.46 141.92 184.41 C141.47 183.33 141.02 182.24 140.56 181.12 C140.11 180.01 139.65 178.89 139.18 177.74 C135.02 167.7 130.25 158.13 124.88 148.69 C124.51 148.03 124.14 147.38 123.76 146.7 C116.6 134.07 108.48 121.6 98.88 110.69 C72.73 110.69 39.94 128.54 17.88 141.12 Z M-41.12 186.69 C-43.01 188.68 -44.8 190.7 -46.55 192.81 C-47.67 194.15 -48.84 195.45 -50.04 196.72 C-60.95 208.31 -70.08 221.6 -78.45 235.1 C-80.12 237.69 -80.12 237.69 -82.12 239.69 C-87.14 240.09 -90.83 239.33 -95.5 237.56 C-117.35 229.79 -140.96 225.48 -164.12 224.69 C-164.5 224.67 -164.5 224.67 -166.38 224.6 C-168.74 224.53 -171.09 224.48 -173.44 224.44 C-174.17 224.42 -174.91 224.39 -175.67 224.37 C-177.74 224.36 -177.74 224.36 -181.12 224.69 C-183.32 227.98 -183.72 230.06 -184.38 233.94 C-184.59 235.19 -184.81 236.44 -185.03 237.72 C-185.14 238.38 -185.25 239.03 -185.36 239.7 C-185.68 241.65 -186.02 243.61 -186.36 245.56 C-188.63 258.98 -189.29 271.9 -189.26 285.49 C-189.25 288.25 -189.26 291.01 -189.26 293.77 C-189.26 295.56 -189.26 297.34 -189.26 299.13 C-189.26 299.53 -189.26 299.53 -189.26 301.59 C-189.24 306.55 -188.92 311.42 -188.37 316.36 C-187.3 326.55 -187.3 326.55 -189.57 329.68 C-193.18 332.51 -197.11 334.1 -201.31 335.88 C-224.64 346.08 -244.83 359.31 -264.31 375.62 C-264.87 376.09 -265.42 376.55 -265.99 377.02 C-268.48 379.13 -270.3 380.95 -272.12 383.69 C-264.75 399.95 -254.96 415.4 -243.48 429.07 C-242.11 430.71 -240.76 432.36 -239.41 434.02 C-234.97 439.39 -230.38 444.49 -225.4 449.36 C-224.99 449.76 -224.99 449.76 -222.92 451.79 C-221.29 453.36 -219.65 454.92 -218 456.47 C-215.01 459.36 -212.55 461.77 -210.8 465.57 C-211.33 470.62 -213.68 474.66 -216 479.12 C-227.03 501.29 -235.6 524.54 -240.62 548.81 C-240.8 549.64 -240.97 550.46 -241.15 551.31 C-242.72 559.49 -242.72 559.49 -241.12 562.69 C-217.7 577.37 -185 580.81 -158.02 583.26 C-157.26 583.33 -156.49 583.41 -155.7 583.48 C-154.26 583.62 -152.81 583.75 -151.37 583.87 C-148.7 584.13 -146.57 584.41 -144.28 585.84 C-142.61 588.52 -142.06 591.13 -141.36 594.21 C-141.05 595.54 -140.74 596.88 -140.42 598.21 C-140.26 598.91 -140.1 599.61 -139.94 600.33 C-136.66 614.53 -132.65 628.18 -127.12 641.69 C-126.82 642.46 -126.51 643.23 -126.19 644.02 C-122.36 653.45 -117.8 662.38 -112.81 671.25 C-112.3 672.17 -111.78 673.1 -111.25 674.05 C-111 674.47 -111 674.47 -109.76 676.63 C-109.33 677.39 -108.89 678.15 -108.44 678.93 C-107.12 680.69 -107.12 680.69 -104.12 681.69 C-101.74 681.01 -101.74 681.01 -98.93 679.88 C-97.89 679.47 -96.85 679.05 -95.79 678.63 C-94.68 678.17 -93.58 677.72 -92.44 677.25 C-91.3 676.79 -90.17 676.33 -89 675.85 C-80.14 672.2 -71.53 668.29 -63.12 663.69 C-62.39 663.29 -61.66 662.89 -60.9 662.48 C-50.13 656.59 -40.04 650.05 -30.18 642.73 C-29.5 642.23 -28.83 641.74 -28.14 641.22 C-26.75 640.17 -25.39 639.08 -24.04 637.97 C-20.94 635.46 -18.91 633.83 -14.94 633.1 C-11.57 633.8 -9.82 634.93 -7.12 637.06 C-6.17 637.8 -5.21 638.53 -4.22 639.29 C-3.2 640.08 -2.18 640.87 -1.12 641.69 C8.67 649.05 18.82 655.42 29.53 661.38 C31.03 662.22 32.52 663.06 34.01 663.9 C42.78 668.89 51.76 673.06 61.12 676.81 C62.11 677.22 63.1 677.62 64.12 678.03 C65.06 678.4 65.99 678.76 66.95 679.13 C67.78 679.46 68.61 679.78 69.47 680.12 C72.39 680.81 74.05 680.73 76.88 679.69 C78.42 677.76 78.42 677.76 79.71 675.23 C80.19 674.29 80.68 673.35 81.17 672.39 C81.67 671.37 82.17 670.36 82.69 669.31 C83.21 668.27 83.74 667.22 84.28 666.15 C95.32 643.99 103.74 620.97 108.8 596.71 C109.01 595.72 109.23 594.72 109.45 593.7 C109.63 592.83 109.81 591.96 110 591.06 C111.13 588.01 112.27 586.63 114.88 584.69 C117.99 584.02 117.99 584.02 121.68 583.78 C122.01 583.76 122.01 583.76 123.69 583.63 C125.11 583.52 126.54 583.43 127.96 583.33 C131.72 583.09 135.48 582.77 139.23 582.45 C139.98 582.39 140.73 582.33 141.5 582.27 C161.05 580.6 198.33 577.23 212.88 562.69 C211.33 534.68 199.26 505.76 186.53 481.1 C186.15 480.37 185.78 479.65 185.4 478.9 C184.7 477.56 183.99 476.22 183.26 474.89 C181.18 470.91 180.29 468.15 180.88 463.69 C182.54 461.52 184.05 459.86 186.03 458.02 C186.56 457.5 187.09 456.98 187.64 456.44 C189.35 454.78 191.08 453.14 192.81 451.5 C195.06 449.35 197.3 447.19 199.53 445.02 C199.8 444.75 199.8 444.75 201.19 443.41 C206.18 438.5 210.58 433.21 214.88 427.69 C215.96 426.34 217.05 424.98 218.14 423.63 C224.25 415.87 229.84 407.89 235.06 399.5 C235.34 399.06 235.34 399.06 236.74 396.82 C239.35 392.54 241.57 388.58 242.88 383.69 C220.26 361.63 190.6 342.45 160.89 331.65 C158.88 330.69 158.88 330.69 156.88 327.69 C156.62 322.43 157.06 317.53 157.81 312.31 C158.62 306.34 159.17 300.39 159.5 294.38 C159.54 293.67 159.58 292.97 159.62 292.24 C160.55 273.81 158.84 255.51 155.88 237.31 C155.71 236.28 155.54 235.24 155.37 234.18 C155.21 233.23 155.04 232.27 154.88 231.29 C154.73 230.45 154.59 229.6 154.44 228.74 C153.88 226.69 153.88 226.69 151.88 224.69 C122.3 221.7 88.55 229.21 60.85 239.1 C57.75 240.02 55.06 240.07 51.88 239.69 C49.34 237.59 47.68 235.04 45.91 232.29 C45.34 231.43 44.78 230.56 44.19 229.67 C43.59 228.75 42.99 227.82 42.38 226.88 C36.6 218.11 30.57 209.76 23.88 201.69 C23.65 201.41 23.65 201.41 22.53 200.03 C11.88 186.98 0.04 174.23 -13.12 163.69 C-21.42 163.69 -35.28 180.93 -41.12 186.69 Z M182.88 227.69 C181.74 231.08 182.03 232.53 182.65 236 C184.75 248.99 186.05 261.51 185.86 274.69 C185.85 275.81 185.83 276.93 185.82 278.09 C185.73 283.74 185.59 289.39 185.37 295.04 C185.33 297.14 185.28 299.25 185.23 301.35 C185.18 302.32 185.13 303.29 185.07 304.29 C185.03 306.98 185.08 309.12 185.88 311.69 C188.26 314.05 190.83 315.33 193.88 316.69 C195.21 317.41 196.53 318.13 197.86 318.87 C198.53 319.23 199.21 319.6 199.91 319.97 C216.7 328.98 232.73 339.76 247.49 351.82 C248.3 352.48 249.1 353.14 249.94 353.81 C250.28 354.1 250.28 354.1 252.04 355.57 C252.64 355.94 253.25 356.31 253.88 356.69 C254.87 356.36 255.86 356.03 256.88 355.69 C257.96 353.35 257.96 353.35 258.96 350.24 C259.33 349.09 259.7 347.94 260.09 346.76 C260.47 345.52 260.85 344.28 261.25 343 C261.35 342.68 261.35 342.68 261.85 341.09 C268.6 319.6 273.72 297.25 274.88 274.69 C274.94 274.04 275 273.39 275.07 272.73 C275.28 270.59 275.43 268.46 275.56 266.31 C275.67 265.01 275.78 263.7 275.89 262.35 C274.71 258.11 274.07 257.74 270.46 255.52 C268.62 254.54 266.75 253.6 264.88 252.69 C264.05 252.27 263.23 251.85 262.38 251.41 C244.23 242.38 225.22 236.06 205.56 231.25 C204.56 231 203.55 230.76 202.51 230.5 C195.98 228.98 189.56 228.12 182.88 227.69 Z M-294.12 253.54 C-301.9 257.46 -301.9 257.46 -303.12 258.69 C-305.75 286.25 -297.47 316.77 -289.12 342.69 C-288.89 343.41 -288.66 344.13 -288.42 344.88 C-287.36 348.16 -286.27 351.43 -285.12 354.69 C-280.3 354.69 -278.95 353.13 -275.62 350.06 C-261.32 337.49 -245.43 327.8 -228.6 319 C-217.66 313.22 -217.66 313.22 -216.12 311.69 C-216.06 308.84 -216.06 306.02 -216.1 303.18 C-216.11 301.38 -216.13 299.58 -216.14 297.78 C-216.15 296.84 -216.16 295.89 -216.16 294.92 C-216.34 272.41 -214.97 250.87 -211.12 228.69 C-232.28 221.64 -275.17 244.18 -294.12 253.54 Z M-333.12 276.69 C-335.39 278.19 -337.41 279.71 -339.5 281.44 C-340.13 281.95 -340.76 282.46 -341.4 282.98 C-342.7 284.04 -344 285.11 -345.29 286.18 C-346.87 287.48 -348.48 288.76 -350.09 290.03 C-366.68 303.42 -382.72 319.34 -395.12 336.69 C-396.12 338.02 -397.11 339.36 -398.11 340.69 C-403.08 347.37 -403.08 347.37 -405.02 350.13 C-405.98 351.48 -406.99 352.8 -408 354.12 C-413.52 366.71 -400.31 392.84 -395.74 404.86 C-387.94 424.67 -377.65 443.48 -365.12 460.69 C-362.16 457.94 -360.22 455.38 -358.38 451.79 C-357.88 450.82 -357.38 449.86 -356.86 448.87 C-356.33 447.84 -355.8 446.81 -355.25 445.75 C-343.46 423.51 -328.77 400.09 -310.14 382.85 C-308.41 381.16 -307.22 379.83 -306.12 377.69 C-306.39 375.86 -306.39 375.86 -307.19 373.82 C-307.34 373.43 -307.34 373.43 -308.08 371.41 C-308.43 370.51 -308.77 369.61 -309.12 368.69 C-319.72 338.86 -326.56 309.14 -330.12 277.69 C-331.12 277.36 -332.11 277.03 -333.12 276.69 Z M302.88 276.69 C301.07 278.49 301.4 281.29 301.15 283.73 C297.81 314.22 292.49 346.14 278.5 373.76 C277.72 376.17 277.96 377.34 278.88 379.69 C280.62 381.73 282.37 383.65 284.25 385.56 C290.61 392.26 296.33 399.31 301.88 406.69 C302.29 407.23 302.7 407.78 303.13 408.35 C315.44 424.68 325.18 442.73 334.88 460.69 C356.96 440.32 368.33 401.44 376.56 373.44 C376.91 372.25 377.27 371.07 377.63 369.85 C377.94 368.74 378.25 367.63 378.57 366.48 C378.85 365.51 379.13 364.53 379.41 363.53 C380.17 358.9 379.51 355.02 376.83 351.16 C376.4 350.54 375.98 349.92 375.54 349.28 C375.07 348.63 374.6 347.98 374.12 347.31 C373.64 346.62 373.15 345.93 372.65 345.22 C367.09 337.42 361.07 330 354.88 322.69 C354.14 321.82 353.41 320.95 352.65 320.06 C342.1 308.02 330.64 296.37 317.88 286.69 C316.8 285.85 315.72 285.02 314.64 284.19 C306.39 277.86 306.39 277.86 302.88 276.69 Z M-294.12 404.69 C-295.82 406.44 -297.38 408.19 -298.94 410.06 C-299.18 410.35 -299.18 410.35 -300.41 411.82 C-315.95 430.76 -328.31 451.45 -339.06 473.44 C-339.59 474.5 -340.12 475.57 -340.66 476.67 C-341.13 477.66 -341.6 478.65 -342.09 479.67 C-342.51 480.55 -342.93 481.42 -343.36 482.32 C-344.23 485.01 -344.2 486.11 -343.12 488.69 C-341.3 490.89 -339.47 492.94 -337.5 495 C-336.95 495.58 -336.41 496.16 -335.84 496.76 C-334.28 498.41 -332.7 500.05 -331.12 501.69 C-330.44 502.4 -329.76 503.11 -329.05 503.85 C-324.95 508.04 -320.55 511.85 -316.12 515.69 C-315.51 516.22 -314.9 516.76 -314.27 517.31 C-300.55 529.21 -285.52 540.75 -269.12 548.69 C-267.77 545.47 -266.73 542.37 -265.97 538.97 C-261.12 518.02 -254.7 497.34 -245.46 477.88 C-243.12 472.95 -243.12 472.95 -243.12 469.69 C-245.21 467.38 -245.21 467.38 -248.06 464.69 C-253.56 459.37 -258.4 453.72 -263.12 447.69 C-263.89 446.74 -264.66 445.79 -265.45 444.81 C-274.97 432.8 -283.27 419.84 -290.84 406.53 C-291.26 405.92 -291.69 405.31 -292.12 404.69 C-292.78 404.69 -293.44 404.69 -294.12 404.69 Z M263.88 404.69 C259.75 410 256.16 415.76 252.45 421.37 C247.83 428.36 243.18 435.2 237.88 441.69 C237.29 442.45 236.7 443.2 236.1 443.98 C231.75 449.57 227.11 454.8 222.26 459.96 C218.68 463.77 215.25 467.69 211.88 471.69 C212.42 472.77 212.97 473.85 213.53 474.96 C225.36 498.89 232.41 523.91 238.88 549.69 C254.63 549.69 276.76 526.88 287.88 516.69 C288.51 516.11 289.14 515.54 289.8 514.95 C313.7 493.3 313.7 493.3 315.88 485.69 C315.27 483.22 315.27 483.22 314.05 480.62 C313.6 479.65 313.16 478.68 312.7 477.68 C312.2 476.65 311.7 475.62 311.19 474.56 C310.68 473.5 310.18 472.43 309.66 471.33 C298.01 447.09 282.78 424.77 264.88 404.69 C264.54 404.69 264.22 404.69 263.88 404.69 Z M-355.12 516.69 C-358.43 523.35 -359.72 530.31 -361.19 537.56 C-361.32 538.17 -361.32 538.17 -361.96 541.23 C-366.39 562.81 -366.67 583.96 -366.21 605.91 C-366.15 608.8 -366.13 611.68 -366.14 614.57 C-366.18 629.97 -366.18 629.97 -361.31 635.89 C-355.87 641.12 -349.6 644.88 -343.12 648.69 C-341.57 649.68 -340.02 650.68 -338.47 651.69 C-334.1 654.5 -329.64 657.13 -325.12 659.69 C-324.38 660.11 -323.63 660.54 -322.87 660.98 C-306.82 670.06 -289.84 676.66 -272.31 682.31 C-271.51 682.57 -270.71 682.83 -269.89 683.1 C-264.37 684.81 -264.37 684.81 -262.12 683.69 C-263.2 677.6 -264.35 671.53 -265.56 665.46 C-265.95 663.51 -266.34 661.56 -266.73 659.6 C-267.12 657.65 -267.52 655.7 -267.91 653.75 C-270.65 639.9 -272.45 626.58 -271.72 612.44 C-271.64 610.49 -271.55 608.54 -271.47 606.6 C-271.34 603.62 -271.18 600.65 -270.95 597.68 C-269.74 581.46 -269.74 581.46 -273.71 576.85 C-277.78 573.6 -282.32 571.51 -287.11 569.54 C-289.52 568.52 -291.66 567.24 -293.84 565.8 C-294.45 565.41 -295.07 565.01 -295.7 564.61 C-309.73 555.48 -323.31 545.91 -335.4 534.3 C-337.69 532.1 -340.02 530 -342.44 527.94 C-346 524.87 -349.29 521.57 -352.56 518.19 C-354.12 516.69 -354.12 516.69 -355.12 516.69 Z M323.24 520.26 C322.54 520.98 321.84 521.71 321.11 522.46 C311.82 531.98 302.54 540.75 291.88 548.69 C290.27 550.02 288.66 551.35 287.06 552.69 C276.92 560.8 265.61 567.48 254.23 573.7 C253.61 574.03 253 574.37 252.36 574.71 C251.83 575 251.3 575.29 250.76 575.58 C250.13 575.95 249.51 576.31 248.88 576.69 C247.82 577.22 246.77 577.76 245.69 578.31 C242.88 580.69 242.88 580.69 242.24 584.28 C242.26 585.73 242.32 587.18 242.39 588.62 C242.41 589.41 242.43 590.19 242.45 591 C242.48 592.69 242.53 594.37 242.6 596.05 C242.75 600.5 242.79 604.95 242.84 609.4 C242.85 610.29 242.86 611.17 242.87 612.09 C243.05 633.1 238.99 653.42 234.47 673.84 C233.78 677.12 233.27 680.37 232.88 683.69 C235.63 685.07 236.72 684.3 239.62 683.35 C240.59 683.03 241.56 682.72 242.57 682.39 C243.62 682.03 244.67 681.68 245.75 681.31 C246.29 681.13 246.29 681.13 249.03 680.21 C272.28 672.18 294.85 661 314.88 646.69 C315.59 646.19 316.3 645.69 317.03 645.18 C319.26 643.62 321.48 642.03 323.69 640.44 C324.38 639.95 325.07 639.47 325.77 638.97 C326.41 638.5 327.05 638.03 327.71 637.55 C328.27 637.14 328.84 636.73 329.42 636.31 C332.92 632.41 333.22 627.01 333.73 621.99 C333.86 620.71 333.99 619.42 334.12 618.1 C334.25 616.74 334.37 615.37 334.5 614 C334.57 613.3 334.63 612.61 334.7 611.89 C335.73 600.8 336.44 589.83 335.88 578.69 C335.85 578.25 335.85 578.25 335.75 576.02 C335.09 563.78 333.56 551.76 331.44 539.69 C331.23 538.51 331.03 537.34 330.82 536.13 C329.69 530.01 328.29 524.42 325.88 518.69 C324.88 518.69 324.88 518.69 323.24 520.26 Z M-244.12 591.69 C-247.16 594.72 -245.44 604.54 -245.44 608.61 C-245.18 633.47 -240.54 657.74 -234.12 681.69 C-233.9 682.6 -233.68 683.52 -233.45 684.46 C-231.88 690.23 -231.88 690.23 -228.65 692.18 C-223.69 692.89 -218.75 693.44 -213.75 693.81 C-212.64 693.9 -211.53 693.98 -210.39 694.06 C-185.49 695.78 -159.56 695.24 -135.12 689.69 C-135.12 686.32 -135.78 685.14 -137.4 682.24 C-137.64 681.79 -137.64 681.79 -138.88 679.52 C-139.42 678.54 -139.95 677.57 -140.5 676.56 C-150.09 658.57 -157.11 639.9 -162.75 620.33 C-163.21 618.78 -163.67 617.23 -164.12 615.69 C-164.27 615.18 -164.27 615.18 -165.02 612.61 C-166.12 610.69 -166.12 610.69 -168.14 609.9 C-168.58 609.86 -168.58 609.86 -170.81 609.62 C-171.9 609.48 -172.98 609.34 -174.1 609.2 C-174.73 609.12 -175.36 609.04 -176 608.96 C-199.35 605.94 -222.13 600.05 -244.12 591.69 Z M211.41 593.32 C210.38 593.67 209.35 594.02 208.29 594.38 C207.14 594.77 206 595.15 204.81 595.55 C203.58 595.96 202.34 596.38 201.06 596.81 C178.85 604.12 157.06 608.03 133.88 610.69 C132.38 615.1 130.91 619.52 129.55 623.98 C123.85 642.69 116.84 660.44 108 677.89 C107.73 678.44 107.73 678.44 106.34 681.23 C105.84 682.21 105.34 683.19 104.83 684.2 C103.88 686.69 103.88 686.69 104.88 689.69 C109.1 690.34 113.33 690.98 117.56 691.62 C118.74 691.81 119.92 691.99 121.13 692.18 C134.03 694.12 146.72 694.88 159.75 694.88 C160.42 694.88 161.08 694.88 161.77 694.88 C170.91 694.86 180.01 694.58 189.12 693.81 C190.08 693.73 191.03 693.66 192.01 693.57 C198.48 692.95 198.48 692.95 201.88 690.69 C202.78 688.59 202.78 688.59 203.52 685.97 C203.66 685.48 203.66 685.48 204.37 682.99 C204.66 681.92 204.95 680.85 205.25 679.75 C205.55 678.64 205.86 677.53 206.17 676.39 C209.48 663.96 211.86 651.39 213.88 638.69 C214.01 637.86 214.14 637.04 214.28 636.19 C216.45 622.1 216.08 607.9 215.88 593.69 C213.88 592.69 213.88 592.69 211.41 593.32 Z M-19.76 667.96 C-20.11 668.21 -20.11 668.21 -21.92 669.45 C-22.69 669.98 -23.46 670.51 -24.25 671.06 C-44.37 684.7 -65.6 695.52 -88.12 704.69 C-87.3 708.63 -85.78 710.48 -83 713.44 C-82.18 714.32 -81.36 715.2 -80.52 716.11 C-79.73 716.96 -78.94 717.81 -78.12 718.69 C-76.97 720.02 -75.83 721.35 -74.69 722.69 C-68.07 730.27 -60.81 737.2 -53.12 743.69 C-52.28 744.42 -51.43 745.16 -50.56 745.92 C-42.74 752.61 -34.49 758.55 -26.01 764.38 C-24.39 765.51 -22.78 766.66 -21.18 767.82 C-20.4 768.37 -19.62 768.93 -18.81 769.5 C-18.18 769.96 -17.54 770.42 -16.89 770.89 C-14.53 771.95 -13.55 771.49 -11.12 770.69 C-9.28 769.62 -9.28 769.62 -7.4 768.28 C-6.7 767.79 -6.01 767.3 -5.29 766.79 C-4.55 766.26 -3.82 765.73 -3.06 765.19 C-2.68 764.92 -2.68 764.92 -0.75 763.54 C5.33 759.16 11.17 754.55 16.88 749.69 C18.01 748.74 19.14 747.8 20.27 746.85 C30.59 738.18 40.19 729.02 48.88 718.69 C49.28 718.23 49.28 718.23 51.34 715.89 C51.75 715.4 51.75 715.4 53.88 712.94 C54.66 712.04 55.44 711.13 56.25 710.2 C57.88 707.69 57.88 707.69 57.76 705.67 C56.88 703.69 56.88 703.69 54.91 702.51 C54.05 702.18 53.19 701.86 52.3 701.53 C51.33 701.16 50.37 700.78 49.37 700.39 C48.32 699.99 47.27 699.6 46.19 699.19 C26.41 691.32 5.55 680.98 -10.96 667.34 C-14.49 664.64 -16.43 665.64 -19.76 667.96 Z M86.88 713.69 C84.87 715.91 83.06 718.13 81.25 720.5 C80.16 721.89 79.07 723.29 77.98 724.68 C76.95 726.02 75.91 727.35 74.88 728.69 C57.33 751.05 36.65 769.8 13.88 786.69 C17.45 793.84 37.26 798.06 45.05 800.81 C63.05 806.78 81.94 810.61 100.81 812.42 C102.93 812.69 104.92 813.18 107 813.7 C112.33 814.71 116.79 814.77 121.88 812.69 C139.09 800.28 152.94 781.47 165 764.25 C165.5 763.54 165.99 762.83 166.5 762.1 C173.21 752.43 179.12 742.4 184.5 731.94 C184.86 731.26 185.21 730.58 185.58 729.88 C186.42 728.18 187.16 726.44 187.88 724.69 C187.54 723.7 187.22 722.71 186.88 721.69 C185.69 721.7 184.5 721.72 183.28 721.74 C152.1 722.11 122.63 720.92 92.07 714.1 C89.88 713.69 89.88 713.69 86.88 713.69 Z M-123.92 714.58 C-124.92 714.79 -125.93 715.01 -126.97 715.23 C-128.07 715.46 -129.18 715.7 -130.31 715.94 C-159.5 721.82 -188.52 722.62 -218.12 720.69 C-219.12 723.69 -219.12 723.69 -217.75 726.99 C-217.08 728.33 -216.39 729.67 -215.69 731 C-215.32 731.71 -214.96 732.42 -214.58 733.16 C-208.5 744.86 -201.86 755.99 -194.12 766.69 C-193.42 767.67 -192.71 768.66 -191.98 769.68 C-160.81 812.15 -160.81 812.15 -149.16 814 C-148.46 813.97 -147.77 813.94 -147.05 813.9 C-146.25 813.87 -145.45 813.83 -144.63 813.8 C-143.76 813.74 -142.89 813.68 -142 813.62 C-141.08 813.57 -140.16 813.51 -139.21 813.46 C-105.84 811.14 -71.9 803.18 -42.12 787.69 C-45.46 784.22 -48.86 781.27 -52.75 778.44 C-61.4 772.04 -69.64 765.26 -77.58 758.01 C-79.36 756.39 -81.15 754.78 -82.95 753.18 C-88.43 748.29 -93.42 743.32 -98.12 737.69 C-99.07 736.59 -100.02 735.49 -100.97 734.39 C-106.1 728.47 -111.15 722.55 -115.82 716.26 C-118.42 713.13 -120.21 713.76 -123.92 714.58 Z " fill="#0b0b0b" transform="translate(641.125,161.3125)"/>
<path d="M0 0 C4.83 0.34 7.09 1.5 10.5 4.88 C14.38 8.55 18.34 11.93 22.56 15.19 C30.21 21.12 37.66 27.27 45.11 33.44 C47.57 35.47 50.03 37.49 52.5 39.5 C59.28 45.04 66.03 50.6 72.78 56.17 C75.65 58.53 78.52 60.9 81.39 63.26 C82.79 64.42 84.19 65.57 85.59 66.73 C89.3 69.8 93.04 72.83 96.81 75.82 C97.6 76.44 98.38 77.07 99.19 77.72 C100.7 78.92 102.21 80.11 103.73 81.29 C106.58 83.58 108.65 85.25 110.22 88.59 C109.82 92.93 106.92 95.18 103.8 97.96 C102.98 98.62 102.16 99.27 101.31 99.94 C100.34 100.72 99.37 101.49 98.37 102.3 C97.83 102.73 97.3 103.15 96.75 103.6 C93.43 106.26 90.16 108.98 86.88 111.69 C85.41 112.89 83.95 114.1 82.48 115.3 C80.99 116.54 79.49 117.77 78 119 C69.65 125.88 61.29 132.76 52.91 139.61 C49.23 142.63 45.55 145.66 41.88 148.69 C41.52 148.98 41.52 148.98 39.7 150.48 C35.94 153.57 32.19 156.67 28.45 159.77 C24.9 162.69 21.35 165.61 17.8 168.52 C16.23 169.81 14.67 171.12 13.11 172.43 C12.33 173.07 11.55 173.71 10.75 174.38 C10.13 174.9 9.5 175.42 8.86 175.96 C6.26 177.41 4.94 177.59 2 177 C0.04 175.11 -1.5 173.39 -3.12 171.25 C-3.55 170.71 -3.98 170.17 -4.43 169.62 C-5.63 168.09 -6.82 166.55 -8 165 C-8.62 164.31 -9.23 163.63 -9.87 162.92 C-11 161 -11 161 -11.07 158.6 C-9.54 154.89 -6.87 152.84 -3.81 150.38 C-3.5 150.12 -3.5 150.12 -1.92 148.8 C3.01 144.73 8.04 140.79 13.09 136.87 C17.14 133.72 21 130.41 24.8 126.96 C29.07 123.15 33.56 119.6 38 116 C48.47 107.49 58.77 98.8 69 90 C67.69 86.07 65.19 84.58 62 82.19 C60.72 81.2 59.44 80.22 58.16 79.23 C57.48 78.71 56.8 78.18 56.1 77.65 C52.51 74.83 49.01 71.91 45.5 69 C40.39 64.76 35.24 60.58 30 56.5 C22.52 50.68 15.23 44.63 7.92 38.59 C5.3 36.42 2.65 34.27 0 32.12 C-0.42 31.78 -0.42 31.78 -2.55 30.02 C-4.25 28.62 -5.97 27.23 -7.7 25.85 C-8.54 25.16 -9.38 24.46 -10.25 23.75 C-11 23.15 -11.75 22.54 -12.52 21.92 C-14 20 -14 20 -14.11 17.72 C-12.48 13.74 -9.86 10.92 -7 7.75 C-6.44 7.11 -5.88 6.48 -5.3 5.82 C-1.49 1.49 -1.49 1.49 0 0 Z " fill="#0b0b0b" transform="translate(518,523)"/>
<path d="M0 0 C0.97 -0.01 1.93 -0.01 2.93 -0.02 C3.99 -0.02 5.04 -0.02 6.13 -0.01 C6.69 -0.02 6.69 -0.02 9.51 -0.03 C13.21 -0.04 16.91 -0.04 20.61 -0.04 C23.17 -0.04 25.74 -0.05 28.3 -0.05 C33.68 -0.06 39.06 -0.06 44.44 -0.05 C50.66 -0.05 56.87 -0.06 63.09 -0.08 C69.07 -0.1 75.05 -0.11 81.04 -0.1 C83.58 -0.1 86.13 -0.11 88.67 -0.12 C92.23 -0.13 95.78 -0.12 99.34 -0.11 C100.39 -0.12 101.45 -0.13 102.54 -0.13 C103.51 -0.13 104.48 -0.12 105.47 -0.11 C106.31 -0.11 107.15 -0.11 108.02 -0.11 C110.84 0.35 112.23 1.33 114.3 3.26 C114.8 5.41 114.8 5.41 114.8 7.86 C114.8 8.74 114.8 9.63 114.8 10.54 C114.78 11.46 114.76 12.38 114.74 13.32 C114.74 14.25 114.75 15.17 114.76 16.12 C114.71 21.21 114.71 21.21 114.3 23.26 C111.07 25.41 110.23 25.51 106.51 25.51 C105.53 25.52 104.54 25.53 103.52 25.53 C102.44 25.53 101.36 25.52 100.25 25.52 C99.11 25.52 97.97 25.53 96.8 25.53 C93.03 25.54 89.26 25.53 85.48 25.53 C82.87 25.53 80.26 25.53 77.64 25.53 C72.16 25.54 66.68 25.53 61.2 25.52 C54.85 25.51 48.51 25.51 42.17 25.53 C36.07 25.54 29.98 25.53 23.88 25.53 C21.28 25.53 18.68 25.53 16.09 25.53 C12.47 25.54 8.84 25.53 5.22 25.52 C4.14 25.52 3.06 25.53 1.94 25.53 C0.96 25.53 -0.02 25.52 -1.04 25.51 C-1.47 25.51 -1.47 25.51 -3.63 25.51 C-5.7 25.26 -5.7 25.26 -7.7 23.26 C-8.15 19.78 -8.02 16.27 -8.01 12.76 C-8.02 12.27 -8.02 12.27 -8.06 9.8 C-8.06 8.87 -8.06 7.94 -8.06 6.98 C-8.07 6.12 -8.07 5.27 -8.07 4.38 C-7.95 3.68 -7.83 2.98 -7.7 2.26 C-4.5 0.13 -3.68 0.01 0 0 Z " fill="#0b0b0b" transform="translate(645.6996917724609,674.7393035888672)"/>
</svg>
