<?xml version="1.0" encoding="UTF-8"?>
<!-- Generated by @neplex/vectorizer (Using visioncortex VTracer) -->
<svg version="1.1" xmlns="http://www.w3.org/2000/svg" width="1254" height="1254" viewBox="0 0 1254 1254">
<path d="M0 0 C0.45 0.2 0.45 0.2 2.74 1.22 C33.46 15.15 62.05 33.26 86.54 56.57 C89.75 59.6 93.06 62.49 96.43 65.35 C98.38 67.25 98.38 67.25 99.92 69.59 C101.59 72.11 102.78 73.66 105.38 75.25 C110.09 75.38 114.53 74.5 119.14 73.62 C122.85 73 126.56 72.81 130.31 72.62 C130.69 72.61 130.69 72.61 132.61 72.51 C166.24 71.01 198.98 75.29 231.38 84.25 C231.77 84.36 231.77 84.36 233.8 84.91 C235.9 85.5 237.98 86.11 240.06 86.75 C241.18 87.09 242.3 87.43 243.45 87.78 C250.3 91.22 253.25 98.28 256.5 104.88 C256.97 105.83 257.44 106.78 257.93 107.77 C273.02 138.95 284.1 173.08 287.18 207.71 C287.32 209.16 287.46 210.62 287.6 212.07 C287.87 214.88 288.08 217.68 288.24 220.49 C289.11 229.89 289.11 229.89 292.74 233.79 C295.53 235.83 298.35 237.57 301.38 239.25 C302.6 240.08 303.82 240.93 305.02 241.8 C305.54 242.16 305.54 242.16 308.19 244 C315.66 249.28 322.55 255.16 329.38 261.25 C329.91 261.73 330.45 262.21 331.01 262.71 C340.36 271.09 349.28 279.63 357.14 289.45 C358.58 291.25 360.04 293.03 361.52 294.8 C370.49 305.46 378.61 316.83 385.62 328.88 C386.01 329.51 386.39 330.15 386.79 330.81 C393.04 341.93 386.54 356.82 383.38 368.25 C373.41 402.29 359.12 438.88 335.95 466.3 C333.62 469.39 333.38 470.05 333.33 474.15 C333.63 475.53 333.98 476.89 334.38 478.25 C334.57 478.98 334.76 479.71 334.96 480.46 C335.41 482.06 335.87 483.66 336.34 485.25 C347.36 522.22 357.08 581.85 342.15 619.33 C332.45 635.31 308.37 647.22 292.41 656.12 C291.08 656.86 289.75 657.61 288.42 658.37 C267.64 670.27 245.13 678.14 222.11 684.46 C221.2 684.72 220.3 684.98 219.38 685.25 C218.33 685.49 217.29 685.74 216.22 685.99 C212.47 687.65 211.9 689.21 210.3 692.94 C209.78 694.1 209.27 695.27 208.73 696.47 C208.47 697.09 208.21 697.7 207.94 698.34 C206.57 701.56 205.12 704.75 203.68 707.95 C203.4 708.58 203.12 709.22 202.83 709.87 C189.65 739.23 169.29 765.4 146.75 788.12 C145.97 788.91 145.2 789.69 144.4 790.5 C132.08 802.75 125.82 806.55 108.56 806.57 C74.66 806.34 40.68 797.55 9.88 783.69 C9.46 783.5 9.46 783.5 7.38 782.57 C3.57 780.84 -0.07 779.03 -3.64 776.84 C-7.23 774.71 -10.48 773.1 -14.62 772.25 C-19.84 773.7 -24.01 776.17 -28.58 779.02 C-50.25 792.06 -77.89 799.19 -102.62 803.25 C-103.09 803.33 -103.09 803.33 -105.47 803.72 C-116.84 805.54 -128.19 806.54 -139.69 807.06 C-140.79 807.12 -141.89 807.17 -143.02 807.22 C-144.06 807.26 -145.09 807.3 -146.16 807.33 C-147.07 807.37 -147.98 807.4 -148.92 807.43 C-161.31 806.59 -170.53 794.67 -178.79 786.35 C-180.25 784.88 -181.72 783.41 -183.2 781.95 C-207.82 757.37 -228 725.86 -240.52 693.4 C-242.44 688.43 -242.44 688.43 -244.62 686.25 C-246.92 685.49 -246.92 685.49 -249.8 684.77 C-250.87 684.5 -251.93 684.22 -253.03 683.94 C-254.17 683.65 -255.32 683.36 -256.5 683.06 C-297.08 672.38 -333.09 653.63 -365.62 627.25 C-366.4 626.64 -367.18 626.03 -367.98 625.4 C-373.1 621.28 -374.63 617.59 -375.44 611.19 C-375.57 610.22 -375.69 609.26 -375.82 608.27 C-375.94 607.27 -376.06 606.28 -376.19 605.25 C-376.31 604.28 -376.44 603.32 -376.57 602.32 C-381.88 560.29 -378.32 516.18 -363.45 476.32 C-362.55 472.98 -362.7 471.53 -363.62 468.25 C-364.8 466.24 -364.8 466.24 -366.29 464.28 C-366.56 463.92 -366.56 463.92 -367.93 462.07 C-368.22 461.69 -368.22 461.69 -369.69 459.75 C-375.07 452.46 -380.12 445.12 -384.62 437.25 C-385.06 436.5 -385.5 435.75 -385.95 434.97 C-401.2 408.55 -411.64 380.71 -418.69 351.06 C-418.9 350.17 -419.12 349.28 -419.34 348.36 C-420.99 340.99 -420.88 335.96 -416.78 329.39 C-415.58 327.61 -414.36 325.83 -413.12 324.06 C-412.81 323.6 -412.81 323.6 -411.19 321.23 C-394.44 296.86 -374.9 273.63 -351.62 255.25 C-350.49 254.32 -349.36 253.38 -348.23 252.45 C-347.64 251.96 -347.04 251.47 -346.42 250.97 C-345.17 249.94 -343.93 248.9 -342.69 247.86 C-339.2 245 -335.87 242.79 -331.77 240.91 C-326.61 238.4 -321.98 236.04 -318.62 231.25 C-316.05 223.18 -316.07 214.51 -315.84 206.1 C-315.68 200.1 -314.96 194.33 -313.88 188.44 C-313.71 187.53 -313.54 186.61 -313.37 185.67 C-308.18 158.73 -299.13 133.06 -287.25 108.38 C-286.95 107.75 -286.65 107.12 -286.34 106.48 C-279.14 91.56 -279.14 91.56 -274.24 89.01 C-273.38 88.73 -272.51 88.45 -271.61 88.16 C-270.64 87.84 -269.67 87.51 -268.67 87.18 C-267.66 86.88 -266.66 86.57 -265.62 86.25 C-264.67 85.95 -263.72 85.65 -262.74 85.35 C-221.38 72.76 -177.41 68.59 -134.52 75 C-130.62 75.25 -130.62 75.25 -128.43 74.06 C-127.93 73.46 -127.44 72.87 -126.94 72.25 C-126.38 71.6 -125.81 70.95 -125.23 70.28 C-124.7 69.61 -124.17 68.94 -123.62 68.25 C-122.65 67.08 -121.67 65.91 -120.69 64.75 C-120.2 64.17 -119.71 63.58 -119.2 62.98 C-116.96 60.52 -114.48 58.41 -111.94 56.25 C-109.72 54.34 -107.58 52.35 -105.45 50.35 C-98.85 44.18 -91.9 38.6 -84.62 33.25 C-84 32.78 -83.38 32.32 -82.73 31.84 C-24.61 -11.27 -24.61 -11.27 0 0 Z M-19.48 25.87 C-20.24 26.22 -21 26.58 -21.78 26.94 C-22.6 27.33 -23.41 27.72 -24.25 28.12 C-25.1 28.53 -25.94 28.93 -26.82 29.35 C-44.98 38.18 -62.18 49.23 -77.62 62.25 C-77.9 62.48 -77.9 62.48 -79.29 63.65 C-85.99 69.27 -92.58 74.91 -98.62 81.25 C-97.62 83.25 -97.62 83.25 -95.35 84.16 C-94.35 84.47 -93.35 84.78 -92.32 85.1 C-91.21 85.45 -90.1 85.8 -88.95 86.17 C-87.75 86.55 -86.55 86.92 -85.31 87.31 C-62.52 94.71 -40.67 104.87 -20.7 118.2 C-17.29 120.44 -15.82 121.25 -11.62 121.25 C-9.66 120.37 -9.66 120.37 -7.61 119.12 C-6.84 118.67 -6.07 118.21 -5.28 117.75 C-4.47 117.25 -3.65 116.76 -2.81 116.25 C-1.08 115.23 0.66 114.21 2.39 113.19 C3.24 112.68 4.1 112.18 4.98 111.66 C26.14 99.21 48.99 90.56 72.38 83.25 C72.38 80.25 72.38 80.25 70.9 78.38 C64.17 71.72 56.91 65.95 49.38 60.25 C48.78 59.79 48.18 59.34 47.57 58.87 C32.81 47.58 17.15 38.2 0.38 30.25 C-0.89 29.64 -2.15 29.03 -3.41 28.43 C-14.09 23.36 -14.09 23.36 -19.48 25.87 Z M-241.03 107.65 C-243.37 108.19 -245.71 108.69 -248.06 109.18 C-257.77 111.47 -257.77 111.47 -260.5 115.44 C-261.25 117.02 -261.95 118.63 -262.62 120.25 C-263.21 121.41 -263.8 122.58 -264.4 123.78 C-278.11 151.04 -287.71 182.73 -289.62 213.25 C-289.29 213.91 -288.97 214.57 -288.62 215.25 C-283.8 213.76 -279.19 211.86 -274.53 209.93 C-257.52 202.92 -240.4 196.85 -222.31 193.38 C-221.51 193.22 -220.71 193.07 -219.89 192.91 C-215.94 192.16 -211.98 191.44 -208.01 190.77 C-206.56 190.51 -205.11 190.25 -203.66 189.99 C-203.02 189.88 -203.02 189.88 -199.77 189.33 C-196.62 188.25 -196.62 188.25 -194.79 185.9 C-193.79 183.63 -192.82 181.39 -192 179.05 C-191.86 178.65 -191.86 178.65 -191.13 176.61 C-190.82 175.75 -190.51 174.89 -190.19 174 C-181.66 151.03 -170.46 129.09 -155.94 109.34 C-154.76 107.69 -153.68 105.98 -152.62 104.25 C-152.96 103.26 -153.28 102.27 -153.62 101.25 C-157.24 100.04 -160.58 100.07 -164.35 100.05 C-165.12 100.04 -165.89 100.03 -166.69 100.03 C-169.21 100.01 -171.73 100 -174.25 100 C-174.68 100 -174.68 100 -176.86 100 C-198.77 100.03 -219.68 102.7 -241.03 107.65 Z M128.38 102.25 C129.65 105.76 131.13 108.47 133.38 111.44 C146.96 130.54 157.31 153.12 164.97 175.19 C165.21 175.86 165.44 176.53 165.68 177.22 C166.16 178.63 166.63 180.05 167.08 181.48 C168.91 186.95 168.91 186.95 171.19 188.42 C173.45 189.28 175.49 189.73 177.88 190.07 C178.77 190.21 179.66 190.35 180.58 190.49 C181.54 190.64 182.51 190.79 183.5 190.94 C208.24 195.03 232.53 202.32 255.06 213.41 C257.38 214.25 257.38 214.25 260.38 213.25 C259.87 205.28 258.87 197.61 257.19 189.81 C256.97 188.78 256.75 187.75 256.52 186.68 C243.32 126.19 243.32 126.19 229.38 112.25 C227.55 111.64 225.7 111.11 223.84 110.63 C222.71 110.33 221.58 110.04 220.41 109.74 C219.2 109.43 218 109.13 216.75 108.81 C215.52 108.5 214.29 108.19 213.02 107.86 C204.18 105.64 195.4 103.56 186.38 102.25 C185.69 102.15 185.01 102.05 184.3 101.94 C172.55 100.27 160.79 100.04 148.94 100 C148.57 100 148.57 100 146.71 99.98 C144.6 99.97 142.49 99.98 140.38 99.98 C139.15 99.99 137.92 99.99 136.65 99.99 C133.47 100.24 131.24 100.88 128.38 102.25 Z M-128.62 115.25 C-130.98 118.43 -133.2 121.69 -135.38 125 C-135.97 125.91 -136.57 126.82 -137.19 127.76 C-163.41 168.05 -163.41 168.05 -166.62 186.25 C-164.9 187.98 -162.53 187.5 -160.17 187.61 C-136.5 188.85 -113.68 192.79 -90.62 198.25 C-90.01 197.44 -89.39 196.63 -88.75 195.79 C-73.69 176.06 -57.58 156.26 -37.62 141.25 C-38.94 138.14 -40.03 136.66 -42.98 135.02 C-43.68 134.64 -44.37 134.25 -45.08 133.85 C-45.84 133.45 -46.59 133.04 -47.38 132.62 C-48.17 132.19 -48.97 131.76 -49.79 131.32 C-114.37 96.9 -114.37 96.9 -128.62 115.25 Z M10.38 139.25 C10.38 142.25 10.38 142.25 12.73 144.64 C13.81 145.6 14.9 146.55 16 147.5 C32.81 162.56 46.19 180.04 59.38 198.25 C65.29 197.66 70.97 196.5 76.76 195.18 C97.5 190.47 118.14 187.98 139.38 187.25 C140.63 183.71 140.13 181.84 138.71 178.42 C138.31 177.47 137.92 176.51 137.52 175.53 C137.08 174.51 136.64 173.49 136.19 172.44 C135.96 171.91 135.96 171.91 134.82 169.22 C127.54 152.38 119.16 136.13 108.38 121.25 C107.96 120.68 107.55 120.1 107.12 119.51 C104.6 116.04 102.05 112.6 99.38 109.25 C98.9 108.65 98.42 108.04 97.93 107.42 C81.67 95.19 26.47 129.79 10.38 139.25 Z M-14.62 156.25 C-29.43 168.67 -43.55 181.08 -55.62 196.25 C-56.58 197.42 -57.55 198.59 -58.51 199.76 C-64.71 207.33 -70.36 215.08 -75.66 223.3 C-77.62 226.25 -77.62 226.25 -79.62 228.25 C-85.95 228.5 -92.16 226.36 -98.12 224.5 C-120.22 217.94 -142.7 214.19 -165.75 214 C-166.18 214 -166.18 214 -168.36 213.97 C-174.38 214 -174.38 214 -176.62 216.25 C-177.74 220.06 -178.39 223.98 -179.12 227.88 C-179.24 228.46 -179.24 228.46 -179.79 231.4 C-183.48 251.7 -184.27 271.98 -183.29 292.55 C-183.23 293.82 -183.18 295.09 -183.12 296.4 C-183 298.93 -182.87 301.47 -182.72 304 C-182.66 305.15 -182.61 306.31 -182.55 307.5 C-182.49 308.54 -182.44 309.57 -182.38 310.64 C-182.62 313.25 -182.62 313.25 -183.9 315 C-186.88 317.16 -190.31 318.41 -193.69 319.81 C-219.37 330.91 -240.59 347.07 -261.62 365.25 C-261.04 370.24 -258.8 374.07 -256.38 378.38 C-255.94 379.16 -255.5 379.94 -255.04 380.75 C-246.94 394.92 -237.55 408.13 -226.62 420.25 C-226.17 420.76 -225.72 421.26 -225.26 421.78 C-221.13 426.4 -217 430.99 -212.49 435.23 C-211.98 435.72 -211.47 436.21 -210.94 436.71 C-209.52 438.05 -208.08 439.36 -206.64 440.68 C-204.62 443.25 -204.62 443.25 -204.05 445.99 C-204.87 450.62 -206.86 454.34 -209 458.5 C-239.2 519.84 -239.2 519.84 -232.62 539.25 C-231 540.44 -231 540.44 -228.85 541.24 C-228.04 541.55 -227.23 541.86 -226.39 542.18 C-225.5 542.49 -224.61 542.8 -223.69 543.12 C-222.75 543.46 -221.82 543.8 -220.86 544.15 C-196.26 552.81 -171.14 557.47 -145.18 559.57 C-139.84 560.04 -139.84 560.04 -137.62 562.25 C-137.07 564.07 -136.6 565.91 -136.18 567.76 C-135.91 568.9 -135.64 570.04 -135.37 571.21 C-135.08 572.44 -134.8 573.67 -134.5 574.94 C-128.61 599.25 -119.71 621.76 -108.19 643.94 C-107.97 644.35 -107.97 644.35 -106.9 646.42 C-106.5 647.18 -106.1 647.93 -105.69 648.7 C-105.52 649.03 -105.52 649.03 -104.63 650.71 C-103.62 652.25 -103.62 652.25 -101.62 653.25 C-97.84 652.18 -94.21 650.6 -90.56 649.12 C-89.45 648.68 -88.34 648.23 -87.19 647.77 C-67.4 639.61 -48.68 629.6 -31.74 616.48 C-30.89 615.84 -30.05 615.19 -29.17 614.52 C-27.51 613.24 -25.86 611.95 -24.23 610.63 C-20.68 607.89 -18.59 606.32 -14.04 606 C-9.62 607.62 -6.59 610 -3 613 C6.59 620.67 16.8 627.04 27.38 633.25 C28.03 633.64 28.69 634.03 29.36 634.43 C37.72 639.35 46.46 643.06 55.44 646.69 C56.52 647.13 57.61 647.56 58.72 648.01 C59.75 648.42 60.78 648.83 61.85 649.25 C62.77 649.61 63.69 649.97 64.64 650.35 C67.54 651.3 70.35 651.82 73.38 652.25 C87.27 628.44 97.5 604.19 104.03 577.35 C107.69 562.37 107.69 562.37 112.38 559.25 C114.83 558.9 114.83 558.9 117.77 558.76 C118.31 558.73 118.31 558.73 121.07 558.57 C121.66 558.54 121.66 558.54 124.62 558.38 C147.98 556.86 170.25 552.18 192.38 544.62 C193.23 544.34 194.09 544.05 194.97 543.75 C195.76 543.47 196.56 543.19 197.38 542.9 C198.08 542.65 198.78 542.41 199.5 542.15 C201.68 541.1 202.94 540.22 204.38 538.25 C204.38 536.21 204.38 536.21 203.86 533.84 C203.76 533.39 203.76 533.39 203.27 531.13 C203.15 530.65 203.15 530.65 202.56 528.19 C202.33 527.17 202.09 526.15 201.85 525.1 C195.86 499.94 187.32 475.3 175.55 452.24 C174.22 448.86 173.99 446.85 174.38 443.25 C176.1 440.86 176.1 440.86 178.5 438.57 C179.37 437.72 180.25 436.88 181.14 436 C182.06 435.14 182.99 434.27 183.94 433.38 C185.73 431.65 187.53 429.92 189.32 428.2 C189.75 427.78 189.75 427.78 191.94 425.66 C195.28 422.35 198.36 418.86 201.38 415.25 C201.85 414.69 202.32 414.14 202.81 413.56 C211.93 402.76 219.77 391.15 227.38 379.25 C227.67 378.8 227.67 378.8 229.19 376.53 C229.76 375.65 230.33 374.77 230.91 373.86 C231.43 373.07 231.95 372.28 232.49 371.47 C233.38 369.25 233.38 369.25 232.67 367.09 C217.51 345.44 182.68 330.03 159.94 318.59 C153.17 315.04 153.17 315.04 151.38 313.25 C151.44 311.1 151.58 308.96 151.75 306.81 C151.84 305.64 151.93 304.46 152.02 303.25 C152.19 301.24 152.38 299.24 152.63 297.24 C153.74 288.07 153.62 278.84 153.62 269.62 C153.63 268.71 153.63 267.8 153.63 266.87 C153.63 249.56 153.06 232.04 148.38 215.25 C146.49 213.36 143.76 214.08 141.25 214.06 C112.54 214.09 85.28 219.35 57.82 227.57 C52.89 228.94 52.89 228.94 50.38 229.25 C45.59 225.55 42.56 220.32 39.25 215.31 C31.45 203.73 23.13 192.91 13.62 182.68 C11.74 180.65 9.96 178.57 8.19 176.44 C4.61 172.32 0.66 168.61 -3.31 164.88 C-3.97 164.26 -4.62 163.64 -5.3 163 C-5.92 162.41 -6.55 161.83 -7.2 161.23 C-7.76 160.7 -8.33 160.18 -8.91 159.64 C-10.72 158.18 -12.51 157.21 -14.62 156.25 Z M177.38 217.25 C176.53 220.73 176.35 223.4 176.93 226.92 C177.07 227.87 177.21 228.82 177.35 229.8 C177.5 230.86 177.65 231.91 177.81 233 C179.21 242.66 179.36 251.71 178.73 261.44 C176.82 293.97 176.82 293.97 181.38 301.6 C186.76 306.63 193.18 308.85 200.1 311.06 C205.39 312.98 209.74 316.08 214.31 319.31 C215.16 319.89 216.01 320.46 216.89 321.05 C223.47 325.5 229.81 330.25 236.05 335.16 C236.69 335.67 237.34 336.18 238 336.7 C238.56 337.15 239.12 337.59 239.69 338.05 C241.51 339.34 243.36 340.3 245.38 341.25 C248.66 337.57 249.83 333.5 251.25 328.88 C251.51 328.04 251.77 327.21 252.03 326.35 C259.74 300.73 263.82 274.02 263.38 247.25 C236.63 232.27 207.86 221.29 177.38 217.25 Z M-245.62 226.88 C-259.04 231.37 -272.04 236.77 -284.62 243.25 C-284.95 243.4 -284.95 243.4 -286.6 244.13 C-288.28 244.99 -288.28 244.99 -290.62 247.25 C-291.3 250.38 -291 253.33 -290.69 256.5 C-290.62 257.43 -290.54 258.36 -290.47 259.31 C-290.23 262.3 -289.93 265.27 -289.62 268.25 C-289.54 269.19 -289.46 270.13 -289.37 271.1 C-287.42 292.49 -283.85 317.66 -274.62 337.25 C-274.13 337.58 -274.13 337.58 -271.62 339.25 C-271.25 338.92 -271.25 338.92 -269.38 337.27 C-255.73 325.37 -241.07 315.59 -225.29 306.75 C-221.86 304.82 -218.45 302.87 -215.04 300.92 C-214.41 300.56 -213.78 300.2 -213.13 299.83 C-211.63 298.97 -210.13 298.11 -208.62 297.25 C-208.64 296.05 -208.66 294.86 -208.67 293.62 C-209.19 250.62 -209.19 250.62 -205.99 229.72 C-205.43 225.91 -205.03 222.08 -204.62 218.25 C-213.93 213.6 -236.36 223.8 -245.62 226.88 Z M-318.62 264.25 C-327.28 270.57 -335.56 277.2 -343.62 284.25 C-344.61 285.11 -345.6 285.98 -346.62 286.87 C-361.96 300.6 -375.04 316.04 -386.75 332.94 C-387.22 333.62 -387.7 334.31 -388.19 335.01 C-392.88 341.9 -392.88 341.9 -391.91 347.07 C-391.51 348.7 -391.11 350.32 -390.69 351.94 C-390.57 352.38 -390.57 352.38 -390 354.61 C-381.68 386.08 -368.65 414.83 -349.62 441.25 C-347.12 438.99 -345.74 436.8 -344.27 433.77 C-344.04 433.32 -344.04 433.32 -342.91 431.03 C-342.42 430.05 -341.94 429.07 -341.44 428.06 C-332.4 410.31 -321.19 393.7 -308.62 378.25 C-307.82 377.26 -307.02 376.26 -306.2 375.24 C-300.19 367.86 -300.19 367.86 -297.92 365.41 C-296.5 363.88 -296.5 363.88 -294.62 361.25 C-295.06 357.36 -296.4 353.79 -297.7 350.11 C-306.85 323.72 -313.57 296.98 -316.11 269.07 C-316.19 268.44 -316.19 268.44 -316.62 265.25 C-316.95 265.08 -316.95 265.08 -318.62 264.25 Z M290.38 265.25 C288.49 267.13 288.86 270.35 288.61 272.87 C288.47 274.28 288.32 275.69 288.17 277.11 C288.09 277.85 288.01 278.6 287.93 279.37 C285.04 306.51 279.15 333.01 268.02 358.06 C267.28 360.58 267.45 361.82 268.38 364.25 C269.69 365.79 269.69 365.79 271.38 367.31 C292.07 387.21 306.62 413.9 319.38 439.25 C320.37 439.25 321.36 439.25 322.38 439.25 C323.6 437.76 323.6 437.76 324.79 435.66 C325.24 434.88 325.68 434.11 326.14 433.31 C326.61 432.46 327.08 431.62 327.56 430.75 C328.05 429.88 328.54 429.02 329.04 428.12 C333.43 420.29 337.59 412.39 341.38 404.25 C341.73 403.48 342.09 402.71 342.46 401.92 C362.8 357.61 362.8 357.61 361.38 340.25 C360.31 337.98 360.31 337.98 358.81 335.86 C358.27 335.07 357.72 334.29 357.16 333.48 C356.57 332.66 355.98 331.84 355.38 331 C354.78 330.15 354.18 329.3 353.56 328.43 C349.37 322.52 345.06 316.77 340.38 311.25 C339.48 310.17 338.58 309.08 337.68 308 C327.56 295.89 316.77 285.04 304.38 275.25 C301.48 272.84 298.58 270.42 295.69 268 C293.38 266.25 293.38 266.25 290.38 265.25 Z M253.38 387.25 C252.25 388.82 251.18 390.43 250.13 392.04 C249.46 393.06 248.79 394.08 248.11 395.12 C247.39 396.22 246.67 397.31 245.94 398.44 C240.07 407.33 234.15 416.02 227.38 424.25 C226.91 424.81 226.45 425.38 225.97 425.96 C217.08 436.7 217.08 436.7 212.13 441.37 C211.62 441.86 211.1 442.34 210.57 442.85 C209.15 444.17 207.71 445.46 206.26 446.75 C204.38 449.25 204.38 449.25 204.36 452.05 C205.61 455.99 207.18 459.68 208.88 463.44 C216.48 480.99 222.3 499.24 226.44 517.91 C226.65 518.85 226.86 519.79 227.09 520.75 C227.26 521.58 227.44 522.4 227.63 523.25 C228.38 525.25 228.38 525.25 231.38 527.25 C242.5 520.43 253.25 513.51 263.38 505.25 C264.37 504.46 265.37 503.67 266.39 502.85 C273.42 497.16 279.89 490.93 286.31 484.56 C287.12 483.77 287.92 482.97 288.75 482.15 C291 479.89 293.2 477.59 295.38 475.25 C296.02 474.58 296.67 473.9 297.34 473.2 C299.59 470.63 301.3 468.66 301.48 465.17 C300.28 458.54 296.88 452.31 293.94 446.31 C293.4 445.21 292.87 444.11 292.31 442.98 C284.29 426.76 274.67 412.36 263.38 398.25 C262.9 397.65 262.43 397.06 261.94 396.44 C256.73 389.9 256.73 389.9 254.38 387.25 C254.04 387.25 253.72 387.25 253.38 387.25 Z M-282.62 388.25 C-296.69 402.39 -307.07 419.88 -316.62 437.25 C-317.01 437.94 -317.39 438.63 -317.79 439.34 C-328.12 457.93 -328.12 457.93 -329.62 464.25 C-328.39 468.49 -326.32 470.93 -323.22 474.02 C-322.33 474.91 -321.44 475.8 -320.52 476.71 C-320.05 477.17 -320.05 477.17 -317.69 479.5 C-316.79 480.4 -315.89 481.31 -314.96 482.24 C-309.59 487.56 -304.05 492.52 -298.14 497.24 C-295.56 499.3 -293.03 501.43 -290.5 503.56 C-285.78 507.42 -280.9 511.02 -275.94 514.56 C-275.24 515.07 -274.54 515.57 -273.81 516.09 C-269.26 519.3 -264.66 521.87 -259.62 524.25 C-257.26 521.89 -257.09 520.66 -256.4 517.43 C-256.29 516.93 -256.29 516.93 -255.72 514.41 C-255.48 513.32 -255.25 512.24 -255 511.12 C-250.82 493.04 -245.2 475.64 -237.24 458.85 C-237.06 458.44 -237.06 458.44 -236.12 456.39 C-235.78 455.68 -235.44 454.98 -235.1 454.25 C-234.62 452.25 -234.62 452.25 -235.39 450.15 C-237.16 447.43 -239.32 445.22 -241.56 442.88 C-255.06 428.44 -267.04 412.1 -276.77 394.89 C-278.53 391.84 -279.63 390.25 -282.62 388.25 Z M-340.62 495.25 C-343.25 501.67 -344.82 508.03 -346.19 514.81 C-346.4 515.88 -346.62 516.94 -346.84 518.04 C-351.54 541.54 -352.64 565.01 -350.75 588.88 C-350.67 589.89 -350.59 590.91 -350.51 591.97 C-349.29 606.14 -349.29 606.14 -344.27 610.43 C-342.86 611.49 -341.44 612.54 -340 613.56 C-339.24 614.12 -338.47 614.69 -337.68 615.27 C-314.78 631.88 -289.47 644.61 -262.56 653.31 C-261.9 653.53 -261.24 653.75 -260.56 653.97 C-257.32 654.96 -255.92 655.35 -252.62 654.25 C-253.64 648.11 -254.67 641.97 -255.71 635.83 C-256.24 632.72 -256.76 629.62 -257.28 626.51 C-257.55 624.92 -257.82 623.32 -258.1 621.73 C-258.5 619.38 -258.89 617.03 -259.29 614.68 C-259.4 613.98 -259.52 613.28 -259.65 612.56 C-261.11 603.79 -261.75 595.19 -261.62 586.3 C-261.62 584.44 -261.63 582.59 -261.63 580.73 C-261.63 577.85 -261.62 574.98 -261.57 572.1 C-261.32 556.04 -261.32 556.04 -264.43 551.79 C-266.77 550.21 -268.97 549.23 -271.62 548.25 C-272.94 547.47 -274.24 546.67 -275.51 545.83 C-276.13 545.45 -276.75 545.07 -277.39 544.68 C-299.02 531.43 -318.75 515.59 -336.38 497.34 C-338.62 495.25 -338.62 495.25 -340.62 495.25 Z M309.38 498.25 C309.12 498.55 309.12 498.55 307.83 500.05 C297.51 511.82 285.96 521.43 273.43 530.72 C271.55 532.12 269.68 533.53 267.81 534.95 C259.48 541.15 250.67 546.19 241.49 551.04 C240.79 551.44 240.09 551.84 239.38 552.25 C238.84 552.52 238.84 552.52 236.15 553.86 C233.38 556.25 233.38 556.25 232.74 560.07 C232.76 561.62 232.82 563.18 232.89 564.73 C232.91 565.57 232.93 566.4 232.95 567.27 C232.98 569.06 233.03 570.85 233.1 572.64 C233.25 577.33 233.29 582.02 233.34 586.71 C233.35 587.64 233.36 588.56 233.37 589.51 C233.52 607.37 230.15 624.6 226.27 641.95 C226.01 643.12 225.75 644.29 225.48 645.49 C225.25 646.53 225.01 647.57 224.76 648.64 C224.38 651.25 224.38 651.25 225.38 654.25 C231.45 653.65 236.79 651.92 242.5 649.81 C243.46 649.46 244.42 649.1 245.42 648.74 C269.71 639.59 299.79 626.03 317.38 606.25 C318.07 603.75 318.07 603.75 318.5 600.81 C318.65 599.87 318.79 598.92 318.95 597.94 C322.82 564.64 319.62 531.86 312.38 499.25 C311.38 498.92 310.39 498.59 309.38 498.25 Z M-234.62 567.25 C-237.18 569.8 -235.87 576.84 -235.88 580.25 C-235.81 648.06 -235.81 648.06 -221.62 662.25 C-195.43 668.97 -156.48 668.92 -130.62 660.25 C-131.24 656.32 -132.46 653.24 -134.25 649.7 C-134.52 649.16 -134.52 649.16 -135.88 646.43 C-136.46 645.28 -137.03 644.12 -137.62 642.94 C-145.64 626.67 -152.5 609.93 -157.04 592.34 C-157.99 588.79 -158.69 586.5 -161.62 584.25 C-164.16 583.64 -164.16 583.64 -167.2 583.29 C-167.76 583.22 -167.76 583.22 -170.62 582.87 C-171.84 582.73 -173.06 582.58 -174.31 582.44 C-195.19 579.71 -214.8 574.23 -234.62 567.25 Z M199.63 569.69 C198.66 570.03 197.69 570.36 196.7 570.7 C195.64 571.07 194.59 571.44 193.5 571.81 C175.08 577.95 155.95 582.24 136.56 583.73 C132.93 584.32 131.13 584.78 128.38 587.25 C127.04 590.15 126.29 593.16 125.5 596.25 C124.99 598.07 124.48 599.9 123.96 601.72 C123.7 602.64 123.44 603.57 123.18 604.52 C118.94 618.95 112.69 632.64 106.38 646.25 C105.74 647.63 105.1 649.02 104.47 650.4 C103.11 653.35 101.75 656.3 100.38 659.25 C107.27 661.91 113.98 663.14 121.31 663.94 C122.47 664.06 123.62 664.19 124.81 664.32 C181.55 669.86 181.55 669.86 194.38 661.25 C195.41 659.06 195.41 659.06 196.16 656.32 C196.44 655.31 196.72 654.3 197.01 653.25 C197.3 652.16 197.58 651.06 197.88 649.94 C198.03 649.38 198.03 649.38 198.79 646.54 C201.31 636.95 203.4 627.32 205 617.53 C205.33 615.5 205.69 613.47 206.06 611.45 C208.23 597.54 207.55 583.28 207.38 569.25 C203.85 568.07 203.04 568.47 199.63 569.69 Z M-21.25 641.19 C-38.95 653.56 -58.31 664.56 -78.57 672.11 C-82.11 673.45 -83.46 674 -85.62 677.25 C-84.91 678.02 -84.2 678.8 -83.46 679.59 C-82.5 680.65 -81.53 681.7 -80.56 682.75 C-80.1 683.26 -79.63 683.76 -79.15 684.28 C-76.46 687.21 -73.83 690.16 -71.25 693.18 C-60.2 705.83 -47.17 716.41 -33.62 726.25 C-32.96 726.74 -32.29 727.23 -31.6 727.73 C-27.64 730.62 -23.67 733.48 -19.62 736.25 C-18.77 736.86 -17.92 737.46 -17.05 738.09 C-14.62 739.25 -14.62 739.25 -12.28 739.27 C-8.41 737.78 -5.44 735.42 -2.19 732.88 C-1.48 732.33 -0.78 731.79 -0.05 731.24 C1.4 730.12 2.84 729 4.29 727.87 C6.18 726.4 8.09 724.95 10.01 723.5 C19.01 716.65 27.23 709.09 35.38 701.25 C36.17 700.5 36.96 699.74 37.78 698.97 C44.81 692.17 51.21 684.56 56.38 676.25 C53.15 674.24 49.96 672.55 46.45 671.09 C45.52 670.69 44.58 670.3 43.62 669.89 C42.63 669.47 41.64 669.05 40.62 668.62 C22.17 660.69 4.69 651.19 -11.62 639.39 C-16.32 636.05 -16.68 637.94 -21.25 641.19 Z M84.38 684.25 C82.9 686.02 81.42 687.79 79.94 689.56 C79.48 690.11 79.03 690.65 78.56 691.21 C75.65 694.7 72.79 698.21 69.94 701.75 C58.69 715.51 46.33 728.23 32.38 739.25 C31.07 740.3 29.76 741.35 28.45 742.41 C22.93 746.85 22.93 746.85 20.56 748.75 C20.02 749.18 19.48 749.62 18.92 750.06 C17.45 751.19 15.91 752.22 14.38 753.25 C15.38 756.25 15.38 756.25 17.47 757.41 C18.38 757.78 19.3 758.14 20.24 758.52 C21.26 758.93 22.28 759.34 23.33 759.76 C23.89 759.98 23.89 759.98 26.69 761.06 C27.26 761.28 27.26 761.28 30.13 762.41 C52.59 771.06 76.24 777.36 100.32 779.1 C101.7 779.2 103.08 779.32 104.47 779.45 C115.49 780.48 115.49 780.48 119.91 777.6 C121.91 775.59 123.64 773.5 125.38 771.25 C125.8 770.92 125.8 770.92 127.94 769.25 C130.77 766.92 133.01 764.34 135.38 761.55 C136.74 759.98 138.13 758.45 139.55 756.95 C151.66 744.17 161.85 729.63 170.38 714.25 C170.6 713.85 170.6 713.85 171.74 711.82 C173.18 709.25 174.59 706.66 176 704.06 C176.45 703.25 176.9 702.43 177.37 701.59 C177.77 700.83 178.18 700.06 178.6 699.27 C178.97 698.59 179.34 697.91 179.71 697.21 C180.52 694.82 180.06 693.63 179.38 691.25 C178.15 691.27 176.93 691.28 175.67 691.3 C129.71 691.84 129.71 691.84 107.38 688.25 C106.27 688.07 105.17 687.9 104.04 687.72 C97.47 686.64 90.91 685.49 84.38 684.25 Z M-119.85 685.05 C-130.74 687.21 -141.57 689.19 -152.62 690.25 C-153.04 690.29 -153.04 690.29 -155.16 690.52 C-166.4 691.57 -177.66 691.36 -188.94 691.31 C-191.05 691.31 -193.15 691.3 -195.26 691.3 C-200.38 691.29 -205.5 691.27 -210.62 691.25 C-210.96 691.91 -211.28 692.57 -211.62 693.25 C-210.58 695.7 -209.48 698.02 -208.25 700.38 C-207.88 701.09 -207.52 701.8 -207.14 702.54 C-205.98 704.78 -204.8 707.02 -203.62 709.25 C-203.28 709.92 -202.93 710.59 -202.57 711.28 C-189.86 735.51 -169.61 763.93 -146.62 779.25 C-143.97 779.48 -141.47 779.58 -138.81 779.56 C-138.02 779.56 -137.23 779.55 -136.41 779.55 C-104.47 778.94 -71.4 769.81 -42.62 756.25 C-42.62 752.25 -42.62 752.25 -43.89 750.87 C-44.48 750.46 -45.06 750.05 -45.67 749.62 C-46.32 749.15 -46.98 748.68 -47.65 748.19 C-48.01 747.94 -48.01 747.94 -49.81 746.69 C-51.29 745.62 -52.77 744.55 -54.24 743.48 C-54.98 742.94 -55.72 742.4 -56.48 741.84 C-61.75 737.92 -66.68 733.57 -71.62 729.25 C-72.45 728.54 -73.27 727.82 -74.12 727.09 C-85.55 717.04 -96.31 706.29 -105.62 694.25 C-107.1 692.35 -108.58 690.45 -110.06 688.56 C-110.7 687.73 -111.34 686.9 -112 686.05 C-112.53 685.46 -113.07 684.86 -113.62 684.25 C-115.82 684.25 -117.7 684.62 -119.85 685.05 Z " fill="#dbdbdb" transform="translate(640.625,176.75)"/>
<path d="M0 0 C4.87 0.13 7.74 2.96 11.19 6.06 C12.34 7.07 13.5 8.08 14.66 9.09 C15.23 9.59 15.79 10.08 16.38 10.6 C18.58 12.5 20.84 14.32 23.12 16.12 C28.46 20.36 33.73 24.68 39 29 C40.83 30.5 42.67 32 44.5 33.5 C46.33 35 46.33 35 55.5 42.5 C56.41 43.25 57.33 44 58.27 44.77 C60.04 46.21 61.81 47.66 63.57 49.11 C67.64 52.44 71.71 55.77 75.79 59.07 C82.87 64.8 89.92 70.56 96.84 76.49 C98.96 78.29 100.97 79.98 103.36 81.43 C105 83 105 83 105.52 85.91 C104.86 89.84 103.67 90.86 100.62 93.38 C99.7 94.15 98.78 94.93 97.82 95.73 C97.36 96.1 97.36 96.1 95 98 C94.24 98.61 93.49 99.23 92.71 99.86 C91.12 101.14 89.53 102.4 87.94 103.66 C84.24 106.61 80.59 109.61 76.94 112.62 C76.21 113.22 75.49 113.82 74.75 114.43 C72.5 116.29 70.25 118.14 68 120 C50.99 134.04 50.99 134.04 43.63 139.9 C40.2 142.64 36.79 145.41 33.38 148.19 C32.7 148.74 32.03 149.28 31.33 149.85 C27.73 152.78 24.12 155.72 20.52 158.66 C20.16 158.95 20.16 158.95 18.32 160.45 C16.93 161.59 15.53 162.72 14.14 163.86 C13.51 164.38 12.88 164.89 12.23 165.42 C11.68 165.87 11.12 166.32 10.56 166.79 C6.41 170.02 6.41 170.02 4.06 169.89 C1.3 168.7 -0.06 167.04 -2 164.75 C-2.69 163.94 -3.38 163.12 -4.09 162.28 C-4.41 161.9 -4.41 161.9 -6 160 C-6.83 159.09 -7.65 158.18 -8.5 157.25 C-10.36 154.47 -10.48 153.3 -10 150 C-8.09 147.71 -8.09 147.71 -5.38 145.38 C-5.13 145.16 -5.13 145.16 -3.89 144.08 C0.48 140.32 5.03 136.77 9.59 133.25 C13.84 129.95 17.94 126.53 22 123 C26.55 119.05 31.17 115.25 35.94 111.56 C41.74 107.08 47.27 102.35 52.78 97.51 C57.04 93.79 61.39 90.29 66 87 C64.66 83.93 63.31 82.15 60.69 80.08 C60.03 79.55 59.37 79.03 58.69 78.48 C57.99 77.93 57.29 77.38 56.56 76.81 C55.1 75.65 53.64 74.48 52.18 73.32 C51.83 73.04 51.83 73.04 50.02 71.6 C47.36 69.49 44.74 67.34 42.12 65.19 C38.77 62.44 35.39 59.71 32 57 C27.67 53.55 23.39 50.05 19.11 46.54 C16.14 44.11 13.16 41.7 10.18 39.29 C7.45 37.08 4.73 34.85 2.01 32.63 C0.05 31.04 -1.93 29.47 -3.91 27.9 C-5.11 26.93 -6.31 25.97 -7.5 25 C-8.06 24.57 -8.62 24.14 -9.19 23.69 C-11.48 21.82 -12.86 20.48 -13.68 17.61 C-12.66 13.69 -10.31 11.27 -7.62 8.31 C-7.12 7.73 -6.61 7.15 -6.09 6.55 C-4.11 4.31 -2.11 2.11 0 0 Z " fill="#dbdbdb" transform="translate(522,522)"/>
<path d="M0 0 C0.84 0 1.69 0 2.56 0 C3.53 -0 4.5 -0.01 5.5 -0.01 C6.56 -0.01 7.63 0 8.73 0.01 C9.85 0 10.97 0 12.12 0 C15.84 -0 19.56 0.01 23.28 0.02 C25.85 0.02 28.42 0.02 31 0.02 C36.39 0.02 41.79 0.03 47.19 0.04 C53.44 0.06 59.69 0.06 65.94 0.06 C71.94 0.06 77.94 0.07 83.94 0.08 C86.5 0.08 89.06 0.08 91.62 0.08 C95.19 0.08 98.75 0.09 102.32 0.1 C103.39 0.1 104.46 0.1 105.56 0.1 C106.53 0.11 107.49 0.11 108.49 0.12 C108.91 0.12 108.91 0.12 111.05 0.12 C112.96 0.25 112.96 0.25 113.96 1.25 C114.05 2.81 114.07 4.38 114.06 5.94 C114.06 6.41 114.06 6.41 114.05 8.8 C114.04 9.3 114.04 9.3 114.02 11.81 C114.02 12.81 114.01 13.81 114.01 14.83 C114 17.3 113.98 19.78 113.96 22.25 C108.02 24.3 102.66 24.54 96.41 24.52 C95.37 24.53 94.33 24.53 93.26 24.54 C89.84 24.55 86.43 24.55 83.01 24.55 C80.63 24.55 78.25 24.56 75.87 24.56 C70.89 24.57 65.92 24.57 60.94 24.56 C54.55 24.56 48.17 24.58 41.78 24.6 C36.87 24.61 31.96 24.61 27.05 24.61 C24.7 24.61 22.34 24.62 19.99 24.63 C16.7 24.64 13.41 24.63 10.13 24.62 C9.15 24.63 8.18 24.64 7.17 24.64 C6.28 24.64 5.38 24.63 4.46 24.62 C3.68 24.62 2.9 24.62 2.1 24.62 C-0.62 24.15 -2.02 23.1 -4.04 21.25 C-4.53 19.2 -4.53 19.2 -4.5 16.87 C-4.5 16.03 -4.49 15.19 -4.49 14.33 C-4.48 13.89 -4.48 13.89 -4.41 11.69 C-4.41 10.81 -4.41 9.93 -4.41 9.03 C-4.29 0.52 -4.29 0.52 0 0 Z " fill="#dbdbdb" transform="translate(641.0392999649048,667.7511110305786)"/>
</svg>
